# xmcd
#
# Track frame offsets: 
#        150
#        18995
#        31925
#        48480
#        58862
#        72560
#        86747
#        99860
#        111962
#        127437
#        141020
#        153847
#
# Disc length: 2267 seconds
#
# Revision: 0
# Processed by: cddbd v1.5.2PL0 Copyright (c) Steve Scherf et al.
# Submitted via: ExactAudioCopy v0.95b4
#
DISCID=a708d90c
DTITLE=Wynette, Tammy - Tammy Wynette Collection - Disc 3
DYEAR=2000
DGENRE=Country
TTITLE0=Little Things
TTITLE1=My Elusive Dreams
TTITLE2=Sometimes When We Touch
TTITLE3=The Happiest Girl In The Whole U.S.A.
TTITLE4=Golden Ring
TTITLE5=Your Love
TTITLE6=Let's Build A World Together
TTITLE7=God's Gonna Get'cha (For That)
TTITLE8=Talkin' To Myself
TTITLE9=Some Things Never Change
TTITLE10=Old-Fashioned Singing
TTITLE11=How Great Thou Art
EXTD=
EXTT0=
EXTT1=
EXTT2=
EXTT3=
EXTT4=
EXTT5=
EXTT6=
EXTT7=
EXTT8=
EXTT9=
EXTT10=
EXTT11=
PLAYORDER=
